<svg xmlns="http://www.w3.org/2000/svg" viewBox="0 0 100 100">
  <defs>
    <radialGradient id="g" cx="50%" cy="50%" r="50%">
      <stop offset="0%" stop-color="#2BD9A4"/>
      <stop offset="100%" stop-color="#3EFFC1"/>
    </radialGradient>
    <filter id="d">
      <feDropShadow dx="0" dy="1" stdDeviation="1.2" flood-color="#000" flood-opacity="0.5"/>
    </filter>
  </defs>
  <path d="M 54.24 45.76 L 54.14 45.49 L 54.03 45.23 L 53.90 44.97 L 53.76 44.71 L 53.60 44.45 L 53.43 44.20 L 53.24 43.95 L 53.04 43.71 L 52.82 43.47 L 52.59 43.25 L 52.35 43.03 L 52.09 42.82 L 51.81 42.62 L 51.53 42.43 L 51.23 42.25 L 50.92 42.08 L 50.59 41.93 L 50.26 41.78 L 49.91 41.66 L 49.56 41.54 L 49.19 41.45 L 48.82 41.37 L 48.44 41.30 L 48.05 41.26 L 47.65 41.23 L 47.25 41.21 L 46.84 41.22 L 46.43 41.25 L 46.01 41.29 L 45.60 41.36 L 45.18 41.44 L 44.76 41.55 L 44.34 41.67 L 43.92 41.82 L 43.51 41.98 L 43.10 42.17 L 42.69 42.38 L 42.29 42.60 L 41.89 42.85 L 41.50 43.12 L 41.12 43.41 L 40.75 43.72 L 40.39 44.04 L 40.04 44.39 L 39.71 44.76 L 39.39 45.14 L 39.08 45.54 L 38.78 45.96 L 38.51 46.40 L 38.25 46.85 L 38.01 47.32 L 37.78 47.80 L 37.58 48.30 L 37.40 48.81 L 37.23 49.33 L 37.09 49.86 L 36.98 50.41 L 36.88 50.96 L 36.81 51.53 L 36.76 52.10 L 36.74 52.67 L 36.75 53.26 L 36.78 53.84 L 36.83 54.43 L 36.91 55.02 L 37.02 55.62 L 37.16 56.21 L 37.32 56.80 L 37.51 57.39 L 37.73 57.97 L 37.97 58.55 L 38.24 59.12 L 38.54 59.68 L 38.87 60.24 L 39.22 60.78 L 39.59 61.32 L 40.00 61.84 L 40.43 62.34 L 40.88 62.83 L 41.36 63.31 L 41.86 63.76 L 42.39 64.20 L 42.93 64.62 L 43.50 65.01 L 44.09 65.39 L 44.70 65.74 L 45.33 66.07 L 45.98 66.37 L 46.64 66.64 L 47.32 66.89 L 48.02 67.11 L 48.73 67.30 L 49.45 67.46 L 50.18 67.59 L 50.93 67.69 L 51.68 67.76 L 52.44 67.80 L 53.20 67.80 L 53.97 67.77 L 54.75 67.71 L 55.52 67.61 L 56.29 67.48 L 57.07 67.32 L 57.84 67.12 L 58.60 66.88 L 59.36 66.62 L 60.12 66.32 L 60.86 65.98 L 61.59 65.61 L 62.31 65.21 L 63.02 64.77 L 63.71 64.30 L 64.39 63.80 L 65.05 63.27 L 65.69 62.70 L 66.30 62.11 L 66.90 61.48 L 67.47 60.83 L 68.01 60.15 L 68.53 59.44 L 69.02 58.71 L 69.49 57.95 L 69.92 57.17 L 70.32 56.37 L 70.69 55.54 L 71.02 54.70 L 71.32 53.84 L 71.59 52.96 L 71.81 52.06 L 72.00 51.15 L 72.16 50.23 L 72.27 49.30 L 72.34 48.36 L 72.38 47.41 L 72.37 46.46 L 72.32 45.50 L 72.24 44.54 L 72.11 43.58 L 71.93 42.62 L 71.72 41.66 L 71.47 40.71 L 71.17 39.77 L 70.83 38.83 L 70.45 37.91 L 70.03 36.99 L 69.57 36.09 L 69.07 35.21 L 68.52 34.35 L 67.94 33.50 L 67.32 32.68 L 66.67 31.87 L 65.97 31.10 L 65.24 30.35 L 64.48 29.63 L 63.68 28.94 L 62.85 28.27 L 61.99 27.65 L 61.09 27.05 L 60.17 26.50 L 59.22 25.98 L 58.25 25.49 L 57.25 25.05 L 56.23 24.65 L 55.18 24.29 L 54.12 23.97 L 53.04 23.70 L 51.95 23.47 L 50.84 23.29 L 49.72 23.16 L 48.59 23.07 L 47.45 23.03 L 46.31 23.04 L 45.16 23.10 L 44.01 23.20 L 42.86 23.36 L 41.71 23.56 L 40.57 23.82 L 39.44 24.12 L 38.31 24.47 L 37.20 24.87 L 36.10 25.32 L 35.01 25.82 L 33.94 26.37 L 32.89 26.96 L 31.87 27.61 L 30.86 28.29 L 29.88 29.02 L 28.93 29.80 L 28.01 30.62 L 27.13 31.48 L 26.27 32.38 L 25.45 33.32 L 24.67 34.29 L 23.93 35.31 L 23.23 36.36 L 22.57 37.44 L 21.95 38.55 L 21.38 39.70 L 20.85 40.87 L 20.38 42.06 L 19.95 43.28 L 19.58 44.53 L 19.25 45.79 L 18.98 47.07 L 18.76 48.36 L 18.60 49.67 L 18.49 50.99 L 18.43 52.32 L 18.43 53.65 L 18.49 54.99 L 18.61 56.33 L 18.78 57.67 L 19.01 59.00 L 19.30 60.33 L 19.64 61.65 L 20.04 62.96 L 20.50 64.26 L 21.02 65.54 L 21.59 66.80 L 22.21 68.05 L 22.89 69.26 L 23.62 70.46 L 24.41 71.62 L 25.25 72.76 L 26.14 73.86 L 27.07 74.93 L 28.06 75.97 L 29.09 76.96 L 30.16 77.91 L 31.28 78.82 L 32.44 79.69 L 33.64 80.50 L 34.88 81.27 L 36.16 81.99 L 37.46 82.66 L 38.80 83.27 L 40.17 83.83 L 41.57 84.33 L 42.99 84.78 L 44.43 85.16 L 45.89 85.49 L 47.37 85.75 L 48.87 85.95 L 50.38 86.09 L 51.90 86.17 L 53.42 86.18 L 54.95 86.13 L 56.48 86.01 L 58.01 85.83 L 59.53 85.58 L 61.05 85.27 L 62.56 84.89 L 64.06 84.45 L 65.54 83.94 L 67.00 83.37 L 68.44 82.73 L 69.86 82.04 L 71.26 81.28 L 72.62 80.46 L 73.96 79.58 L 75.26 78.65 L 76.52 77.65 L 77.74 76.60 L 78.92 75.50 L 80.06 74.34 L 81.15 73.14 L 82.20 71.88 L 83.19 70.58 L 84.13 69.23 L 85.02 67.84 L 85.85 66.41 L 86.62 64.94 L 87.32 63.44 L 87.97 61.90 L 88.56 60.33 L 89.08 58.73 L 89.53 57.11 L 89.91 55.47 L 90.23 53.80 L 90.48 52.12 L 90.65 50.43 L 90.76 48.72 L 90.79 47.00 L 90.75 45.28 L 90.64 43.56 L 90.46 41.84 L 90.20 40.13 L 89.87 38.42 L 89.47 36.72 L 88.99 35.03 L 88.44 33.36 L 87.83 31.71 L 87.14 30.09 L 86.37 28.49 L 85.55 26.92 L 84.65 25.38 L 83.68 23.87 L 82.65 22.40 L 81.56 20.98 L 80.41 19.59" fill="none" stroke="url(#g)" stroke-width="14" stroke-linecap="round" stroke-linejoin="round" filter="url(#d)"/>
</svg>